<svg width="133" height="26" viewBox="0 0 133 26" fill="none" xmlns="http://www.w3.org/2000/svg">
  <path
    d="M41.6906 3.74111L35.2165 0L23.5484 6.73598V11.426V13.126V14.6136L35.2165 21.3496L42.6889 17.0302V13.808L35.2165 18.1224L26.3406 12.9975V11.426V8.34708L35.2165 3.2222L40.2969 6.15776L41.0679 6.60255L44.7892 8.75233L46.8797 9.95818V6.73598L41.6906 3.74111Z"
    fill="#1EA665" />
  <path
    d="M35.2165 4.6554L27.7392 8.96978V12.1969L35.2165 7.8776L44.0874 13.0025V14.5444V17.6529L35.2165 22.7778L29.8642 19.689L26.6371 17.8259L25.6438 17.2526L23.5483 16.0418V19.264L28.4706 22.1057L35.2165 26L46.8796 19.264V14.5444V12.7109V11.3914L35.2165 4.6554Z"
    fill="#1EA665" />
  <path
    d="M10.5562 23.4994C4.63562 23.4994 0 18.8885 0 13.0025C0 7.11658 4.60597 2.50073 10.487 2.50073C14.2133 2.50073 17.4799 4.30951 19.4518 7.47241L19.8571 8.11982L16.2988 10.6106L15.8441 9.92366C14.4999 7.89742 12.6961 6.86948 10.4919 6.86948C7.11652 6.86948 4.66527 9.44922 4.66527 13.0025C4.66527 16.5559 7.14617 19.1356 10.5661 19.1356C12.7998 19.1356 14.6828 18.1077 16.0072 16.1605L16.4619 15.4884L19.9312 17.8951L19.5309 18.5425C17.5936 21.6956 14.322 23.4994 10.5661 23.4994H10.5562Z"
    fill="white" />
  <path
    d="M95.2726 23.2226V2.77747H110.084V7.03255H99.7896V10.6155H108.626V14.8706H99.7896V18.9675H110.375V23.2226H95.2726Z"
    fill="white" />
  <path
    d="M127.029 23.2226L121.306 14.5296L118.959 17.0599V23.2226H114.442V2.77747H118.959V10.8923L126.431 2.77747H132.372L124.489 11.342L132.525 23.2226H127.029Z"
    fill="white" />
  <path
    d="M74.0759 2.77747V7.10668C76.1466 7.10668 78.2223 7.10668 80.293 7.11162V23.2177H84.7952V7.11656H90.9974V2.77747H74.0759Z"
    fill="white" />
  <path
    d="M70.3842 2.77747H65.8672V15.6514L55.5828 2.77747H51.481V23.2226H55.998V10.4771L66.2576 23.2226H70.3842V7.11162V2.77747Z"
    fill="white" />
</svg>
  